<svg xmlns="http://www.w3.org/2000/svg" xmlns:xlink="http://www.w3.org/1999/xlink" width="500" zoomAndPan="magnify" viewBox="0 0 375 374.999991" height="500" preserveAspectRatio="xMidYMid meet" version="1.0"><defs><g/><clipPath id="a9334463d2"><path d="M 67.773438 140.53125 L 166.773438 140.53125 L 166.773438 239.53125 L 67.773438 239.53125 Z M 67.773438 140.53125 " clip-rule="nonzero"/></clipPath><clipPath id="fc50a99870"><path d="M 117.273438 140.53125 C 89.9375 140.53125 67.773438 162.691406 67.773438 190.03125 C 67.773438 217.367188 89.9375 239.53125 117.273438 239.53125 C 144.613281 239.53125 166.773438 217.367188 166.773438 190.03125 C 166.773438 162.691406 144.613281 140.53125 117.273438 140.53125 Z M 117.273438 140.53125 " clip-rule="nonzero"/></clipPath><clipPath id="0dbc2cf1a7"><path d="M 70.96875 145 L 164.71875 145 L 164.71875 237.960938 L 70.96875 237.960938 Z M 70.96875 145 " clip-rule="nonzero"/></clipPath><clipPath id="ff40cfbda7"><path d="M 69.859375 142.621094 L 164.359375 142.621094 L 164.359375 237.121094 L 69.859375 237.121094 Z M 69.859375 142.621094 " clip-rule="nonzero"/></clipPath><clipPath id="2852f3c390"><path d="M 117.265625 142.621094 C 91.085938 142.621094 69.859375 163.847656 69.859375 190.03125 C 69.859375 216.214844 91.085938 237.4375 117.265625 237.4375 C 143.449219 237.4375 164.675781 216.214844 164.675781 190.03125 C 164.675781 163.847656 143.449219 142.621094 117.265625 142.621094 Z M 117.265625 142.621094 " clip-rule="nonzero"/></clipPath></defs><g clip-path="url(#a9334463d2)"><g clip-path="url(#fc50a99870)"><path stroke-linecap="butt" transform="matrix(0.75, 0, 0, 0.75, 67.773866, 140.530772)" fill="none" stroke-linejoin="miter" d="M 65.999432 0.000637904 C 29.551513 0.000637904 -0.000571933 29.547515 -0.000571933 66.000642 C -0.000571933 102.448561 29.551513 132.000647 65.999432 132.000647 C 102.45256 132.000647 131.999437 102.448561 131.999437 66.000642 C 131.999437 29.547515 102.45256 0.000637904 65.999432 0.000637904 Z M 65.999432 0.000637904 " stroke="#ddd2ba" stroke-width="2" stroke-opacity="1" stroke-miterlimit="4"/></g></g><g clip-path="url(#0dbc2cf1a7)"><path fill="#ddd2ba" d="M 109.792969 145.058594 C 109.886719 145.035156 109.984375 145.035156 110.078125 145.011719 C 112.660156 147.832031 115.527344 149.410156 118.632812 149.695312 C 122.097656 150.03125 125.96875 148.789062 130.171875 146.015625 C 130.265625 146.039062 130.386719 146.0625 130.484375 146.085938 C 126.15625 148.976562 122.191406 150.292969 118.609375 149.933594 C 115.382812 149.625 112.421875 147.976562 109.792969 145.058594 Z M 118.585938 152.203125 C 121.953125 152.441406 127.019531 151.628906 133.207031 146.972656 C 133.109375 146.949219 133.015625 146.898438 132.941406 146.875 C 126.875 151.414062 121.90625 152.203125 118.609375 151.964844 C 114.332031 151.652344 110.53125 149.503906 107.257812 145.5625 C 107.164062 145.585938 107.09375 145.609375 106.996094 145.632812 C 110.316406 149.671875 114.210938 151.894531 118.585938 152.203125 Z M 89.390625 153.972656 C 89.199219 154.113281 88.984375 154.28125 88.792969 154.425781 C 88.027344 155.453125 87.070312 156.289062 85.902344 156.886719 C 85.710938 157.054688 85.519531 157.246094 85.351562 157.414062 C 85.542969 157.339844 85.757812 157.246094 85.949219 157.148438 C 87.382812 156.410156 88.550781 155.308594 89.390625 153.972656 Z M 101.691406 147.570312 C 102.554688 147.496094 103.367188 147.570312 104.25 147.734375 C 105.203125 147.925781 106.183594 148.261719 107.234375 148.761719 C 107.785156 149.097656 108.335938 149.433594 108.910156 149.789062 C 112.660156 152.109375 116.769531 154.640625 121.070312 154.640625 C 122.480469 154.640625 123.914062 154.355469 125.371094 153.734375 C 127.160156 152.871094 128.976562 151.773438 130.722656 150.675781 C 132.296875 149.695312 133.898438 148.691406 135.546875 147.855469 C 135.453125 147.808594 135.355469 147.785156 135.261719 147.734375 C 133.660156 148.546875 132.132812 149.503906 130.601562 150.460938 C 128.859375 151.535156 127.066406 152.65625 125.296875 153.492188 C 119.5625 156.050781 113.972656 152.609375 109.050781 149.574219 C 108.476562 149.21875 107.929688 148.882812 107.378906 148.546875 C 106.304688 148.046875 105.300781 147.6875 104.34375 147.496094 C 103.460938 147.328125 102.625 147.257812 101.765625 147.328125 C 101.71875 147.304688 101.667969 147.304688 101.621094 147.28125 C 101.5 147.328125 101.359375 147.378906 101.238281 147.425781 C 101.40625 147.472656 101.550781 147.519531 101.691406 147.570312 C 101.644531 147.542969 101.667969 147.570312 101.691406 147.570312 Z M 86.6875 162.359375 C 90.273438 161.042969 93.042969 157.292969 93.6875 152.777344 C 94.167969 151.773438 94.597656 150.9375 95.027344 150.246094 C 94.882812 150.316406 94.742188 150.410156 94.597656 150.484375 C 94.214844 151.105469 93.855469 151.820312 93.449219 152.679688 L 93.449219 152.707031 C 92.804688 157.148438 90.105469 160.828125 86.59375 162.117188 C 84.777344 162.8125 82.890625 162.765625 81.144531 162.046875 C 81.097656 162.117188 81.050781 162.191406 80.980469 162.238281 C 81.957031 162.644531 82.960938 162.859375 83.988281 162.859375 C 84.875 162.859375 85.78125 162.691406 86.6875 162.359375 Z M 85.804688 165.414062 C 91.300781 164.414062 97.011719 158.894531 99.636719 151.988281 C 100.09375 151.058594 100.832031 150.652344 101.882812 150.722656 C 102.839844 150.792969 103.960938 151.25 105.015625 151.75 C 105.230469 151.84375 105.46875 151.964844 105.683594 152.058594 C 106.183594 152.300781 106.636719 152.515625 107.09375 152.707031 C 112.421875 155.644531 117.988281 156.433594 124.152344 155.09375 C 128.476562 154.164062 133.0625 152.132812 138.152344 148.953125 C 138.054688 148.90625 137.984375 148.882812 137.890625 148.835938 C 129.742188 153.925781 118.511719 158.75 107.1875 152.464844 C 106.734375 152.277344 106.28125 152.058594 105.777344 151.820312 C 105.5625 151.703125 105.324219 151.605469 105.109375 151.488281 C 104.035156 150.984375 102.910156 150.507812 101.90625 150.4375 C 100.761719 150.363281 99.949219 150.816406 99.445312 151.84375 C 96.84375 158.679688 91.203125 164.125 85.78125 165.128906 C 83.582031 165.535156 81.457031 165.199219 79.496094 164.199219 C 79.449219 164.269531 79.402344 164.339844 79.355469 164.386719 C 80.8125 165.152344 82.339844 165.535156 83.941406 165.535156 C 84.539062 165.582031 85.160156 165.535156 85.804688 165.414062 Z M 87.167969 168.308594 C 93.1875 167.636719 99.613281 162.574219 103.222656 155.714844 C 103.9375 154.902344 105.347656 154.570312 106.421875 154.976562 C 117.199219 159.683594 127.855469 158.367188 137.195312 151.222656 C 137.984375 150.554688 138.941406 150.148438 139.917969 149.910156 C 139.824219 149.863281 139.703125 149.789062 139.609375 149.742188 C 138.675781 150.003906 137.792969 150.410156 137.050781 151.03125 C 127.78125 158.128906 117.222656 159.417969 106.519531 154.761719 C 105.347656 154.304688 103.84375 154.664062 103.054688 155.574219 L 103.03125 155.597656 C 99.472656 162.382812 93.09375 167.398438 87.167969 168.089844 C 84.035156 168.449219 81.121094 167.589844 78.566406 165.65625 C 78.519531 165.726562 78.46875 165.796875 78.445312 165.847656 C 80.644531 167.542969 83.128906 168.402344 85.78125 168.402344 C 86.210938 168.378906 86.6875 168.355469 87.167969 168.308594 Z M 90.128906 171.628906 C 95.527344 171.222656 100.5 168.066406 103.722656 162.980469 C 104.273438 162.308594 104.894531 161.59375 105.492188 160.972656 C 106.183594 160.304688 106.804688 159.800781 107.425781 159.441406 C 108.167969 159.15625 108.957031 159.011719 109.910156 158.988281 C 119.207031 161.6875 127.710938 157.792969 135.929688 154.042969 C 137.839844 153.160156 139.800781 152.277344 141.757812 151.464844 C 142.023438 151.4375 142.285156 151.414062 142.546875 151.414062 C 142.429688 151.34375 142.308594 151.273438 142.1875 151.175781 C 142.046875 151.175781 141.878906 151.199219 141.734375 151.222656 L 141.710938 151.222656 C 139.753906 152.035156 137.769531 152.945312 135.859375 153.804688 C 127.664062 157.554688 119.207031 161.425781 109.984375 158.726562 C 109.960938 158.726562 109.960938 158.726562 109.960938 158.726562 C 108.980469 158.75 108.144531 158.894531 107.355469 159.203125 C 106.6875 159.585938 106.066406 160.089844 105.347656 160.78125 C 104.726562 161.425781 104.105469 162.144531 103.53125 162.835938 C 100.332031 167.851562 95.433594 170.984375 90.105469 171.390625 C 85.636719 171.722656 81.21875 170.097656 77.753906 166.847656 C 77.707031 166.921875 77.65625 166.992188 77.632812 167.0625 C 80.835938 170.027344 84.847656 171.675781 88.957031 171.675781 C 89.339844 171.675781 89.746094 171.652344 90.128906 171.628906 Z M 106.855469 167.804688 C 107.929688 167.230469 108.882812 166.683594 109.792969 166.179688 C 110.53125 165.75 111.273438 165.296875 112.109375 164.792969 C 112.828125 164.601562 113.519531 164.386719 114.234375 164.199219 C 122.121094 161.953125 129.574219 159.847656 136.8125 154.953125 C 138.582031 153.949219 140.589844 154.042969 142.355469 154.164062 C 142.714844 154.1875 143.074219 154.210938 143.382812 154.210938 C 144.21875 154.355469 145.03125 154.617188 145.820312 154.925781 C 146.632812 155.261719 147.445312 155.714844 148.210938 156.242188 C 149.40625 157.054688 150.574219 158.128906 151.699219 159.441406 L 151.722656 159.46875 C 151.984375 159.632812 152.246094 159.921875 152.535156 160.183594 C 152.894531 160.566406 153.273438 160.949219 153.65625 161.089844 C 153.464844 160.851562 153.273438 160.636719 153.058594 160.398438 C 152.941406 160.277344 152.820312 160.160156 152.703125 160.015625 C 152.4375 159.730469 152.152344 159.441406 151.867188 159.25 C 150.742188 157.9375 149.546875 156.863281 148.351562 156.027344 C 147.566406 155.476562 146.753906 155.046875 145.917969 154.6875 C 145.128906 154.355469 144.269531 154.113281 143.40625 153.949219 C 143.074219 153.949219 142.714844 153.925781 142.355469 153.898438 C 140.539062 153.804688 138.511719 153.683594 136.671875 154.734375 C 129.480469 159.609375 122.046875 161.710938 114.164062 163.933594 C 113.449219 164.125 112.730469 164.339844 112.015625 164.554688 C 112.015625 164.554688 111.992188 164.554688 111.992188 164.578125 C 111.152344 165.105469 110.390625 165.558594 109.671875 165.964844 C 108.765625 166.492188 107.808594 167.015625 106.734375 167.613281 C 95.121094 176.691406 83.773438 174.496094 77.0625 168.066406 C 77.011719 168.140625 76.964844 168.210938 76.941406 168.28125 C 81.027344 172.25 85.78125 173.898438 90.558594 173.898438 C 96.339844 173.898438 102.171875 171.484375 106.855469 167.804688 Z M 103.605469 174.445312 C 104.679688 174.066406 105.753906 173.632812 106.804688 173.15625 C 107.855469 172.871094 108.910156 172.511719 109.9375 172.128906 C 110.9375 171.746094 111.964844 171.292969 112.945312 170.816406 C 113.925781 170.335938 114.90625 169.789062 115.882812 169.191406 C 116.480469 168.761719 117.054688 168.332031 117.652344 167.902344 C 125.441406 162.261719 134.257812 155.859375 143.550781 156.957031 C 144.601562 157.269531 145.628906 157.722656 146.609375 158.320312 C 147.636719 158.941406 148.617188 159.753906 149.546875 160.710938 C 150.527344 161.710938 151.484375 162.929688 152.390625 164.339844 C 152.414062 164.363281 152.4375 164.386719 152.460938 164.386719 C 154.398438 164.984375 156.164062 165.871094 157.910156 166.945312 C 157.816406 166.800781 157.71875 166.65625 157.648438 166.515625 C 156.046875 165.558594 154.375 164.746094 152.605469 164.199219 C 151.675781 162.765625 150.71875 161.546875 149.738281 160.519531 C 148.785156 159.539062 147.78125 158.726562 146.753906 158.082031 C 145.773438 157.484375 144.722656 157.007812 143.621094 156.695312 C 134.210938 155.597656 125.347656 162.023438 117.53125 167.683594 C 116.9375 168.117188 116.339844 168.546875 115.765625 168.953125 C 114.808594 169.523438 113.828125 170.074219 112.851562 170.578125 C 111.871094 171.054688 110.84375 171.507812 109.839844 171.890625 C 108.835938 172.273438 107.785156 172.605469 106.734375 172.917969 C 105.683594 173.394531 104.609375 173.824219 103.53125 174.207031 C 92.757812 178.007812 82.9375 176.261719 76.320312 169.429688 C 76.273438 169.5 76.25 169.574219 76.199219 169.644531 C 80.574219 174.113281 86.28125 176.429688 92.757812 176.429688 C 96.175781 176.429688 99.828125 175.761719 103.605469 174.445312 Z M 95.886719 178.199219 C 97.035156 178.199219 98.179688 178.148438 99.351562 178.03125 L 100.449219 177.863281 C 105.992188 177.003906 111.703125 176.121094 116.9375 173.585938 C 117.675781 173.203125 118.394531 172.796875 119.0625 172.34375 C 120.136719 171.652344 121.164062 170.863281 122.121094 169.980469 C 127.855469 162.574219 133.921875 158.511719 140.160156 157.914062 C 141.402344 158.007812 142.644531 158.390625 143.835938 159.011719 C 145.414062 159.921875 146.585938 161.738281 147.828125 163.695312 C 148.234375 164.339844 148.664062 165.007812 149.117188 165.65625 C 149.785156 166.609375 150.382812 167.304688 151.003906 167.875 L 151.027344 167.902344 C 152.367188 168.59375 153.65625 169.167969 154.734375 169.621094 C 156.789062 170.265625 158.792969 171.316406 160.777344 172.441406 C 160.730469 172.320312 160.679688 172.199219 160.609375 172.082031 C 158.722656 171.007812 156.789062 170.027344 154.804688 169.40625 C 153.730469 168.953125 152.460938 168.402344 151.125 167.710938 C 150.527344 167.160156 149.953125 166.46875 149.285156 165.535156 C 148.855469 164.914062 148.425781 164.246094 147.996094 163.601562 C 146.753906 161.640625 145.558594 159.777344 143.933594 158.84375 C 142.714844 158.199219 141.425781 157.816406 140.132812 157.722656 C 133.804688 158.320312 127.6875 162.429688 121.929688 169.859375 C 120.996094 170.71875 119.96875 171.484375 118.917969 172.175781 C 118.25 172.605469 117.53125 173.011719 116.816406 173.394531 C 111.632812 175.902344 105.921875 176.789062 100.402344 177.648438 L 99.304688 177.816406 C 98.039062 177.933594 96.769531 178.007812 95.554688 177.984375 C 87.980469 177.910156 81.144531 175.234375 75.84375 170.3125 C 75.792969 170.386719 75.769531 170.457031 75.722656 170.527344 C 81.050781 175.449219 87.929688 178.148438 95.554688 178.199219 C 95.671875 178.199219 95.792969 178.199219 95.886719 178.199219 Z M 77.515625 175.042969 C 81.839844 178.390625 87.238281 179.964844 94.359375 179.964844 C 95.050781 179.964844 95.742188 179.941406 96.460938 179.917969 C 97.609375 179.871094 98.851562 179.796875 100.355469 179.679688 C 102.027344 179.464844 103.773438 179.34375 105.445312 179.226562 C 111.203125 178.820312 117.175781 178.390625 122.289062 174.351562 C 123.21875 173.632812 124.128906 172.796875 124.941406 171.867188 L 124.964844 171.84375 C 131.007812 161.019531 136.597656 159.707031 140.207031 160.496094 C 141.066406 160.660156 141.925781 160.996094 142.785156 161.472656 C 144.554688 162.332031 145.414062 164.601562 146.25 166.824219 C 147.085938 169.023438 147.945312 171.316406 149.714844 172.320312 C 150.480469 172.75 151.339844 172.941406 152.367188 172.871094 C 153.441406 173.039062 154.589844 173.300781 155.855469 173.707031 C 157.816406 174.136719 159.894531 174.875 162.066406 175.714844 C 162.042969 175.617188 161.996094 175.523438 161.972656 175.425781 C 159.871094 174.636719 157.863281 173.898438 155.925781 173.492188 C 154.636719 173.085938 153.488281 172.820312 152.390625 172.65625 L 152.367188 172.65625 C 151.386719 172.726562 150.574219 172.558594 149.835938 172.128906 C 148.136719 171.148438 147.300781 168.929688 146.488281 166.753906 C 145.628906 164.507812 144.746094 162.167969 142.90625 161.28125 C 142.046875 160.78125 141.160156 160.445312 140.277344 160.277344 C 136.574219 159.46875 130.886719 160.804688 124.796875 171.746094 C 123.984375 172.65625 123.101562 173.46875 122.191406 174.183594 C 117.128906 178.175781 111.203125 178.582031 105.492188 179.011719 C 103.820312 179.128906 102.074219 179.25 100.402344 179.464844 C 98.898438 179.582031 97.679688 179.65625 96.53125 179.703125 C 88.386719 180.039062 82.414062 178.507812 77.730469 174.875 C 76.796875 174.160156 75.914062 173.347656 75.101562 172.488281 C 75.054688 172.417969 75.007812 172.34375 74.957031 172.296875 C 74.910156 172.390625 74.886719 172.464844 74.839844 172.558594 C 74.863281 172.582031 74.886719 172.605469 74.910156 172.65625 C 75.699219 173.515625 76.582031 174.328125 77.515625 175.042969 Z M 75.054688 177.816406 C 75.890625 178.507812 76.820312 179.128906 77.777344 179.65625 C 82.867188 182.425781 88.984375 182.425781 93.738281 182.140625 C 95.121094 182.042969 96.53125 181.925781 97.609375 181.828125 C 100.378906 181.375 103.390625 181.398438 106.28125 181.421875 C 112.585938 181.472656 119.109375 181.519531 124.152344 176.8125 C 125.035156 176.070312 125.824219 175.234375 126.539062 174.328125 C 127.28125 173.347656 127.972656 172.25 128.570312 171.054688 L 128.570312 171.03125 C 129.695312 166.0625 134.640625 162.359375 139.132812 163.074219 C 139.871094 163.242188 140.636719 163.527344 141.378906 163.980469 C 142.929688 164.867188 143.980469 167.0625 145.082031 169.359375 C 145.964844 171.222656 146.894531 173.179688 148.1875 174.589844 C 148.972656 175.472656 149.8125 176.046875 150.742188 176.382812 L 150.765625 176.382812 C 151.914062 176.476562 153.15625 176.644531 154.542969 176.957031 C 157.3125 177.242188 160.25 178.054688 163.09375 178.867188 C 163.070312 178.769531 163.046875 178.675781 163.023438 178.605469 C 160.203125 177.816406 157.3125 177.003906 154.589844 176.714844 C 153.203125 176.40625 151.984375 176.214844 150.8125 176.144531 C 149.929688 175.832031 149.117188 175.257812 148.378906 174.421875 C 147.136719 173.039062 146.203125 171.101562 145.320312 169.238281 C 144.195312 166.898438 143.144531 164.675781 141.519531 163.742188 C 140.753906 163.289062 139.992188 162.980469 139.203125 162.8125 C 134.59375 162.070312 129.550781 165.871094 128.378906 170.957031 C 127.804688 172.128906 127.136719 173.203125 126.398438 174.160156 C 125.703125 175.066406 124.890625 175.902344 124.03125 176.621094 C 119.0625 181.257812 112.585938 181.207031 106.304688 181.183594 C 103.390625 181.160156 100.378906 181.136719 97.609375 181.589844 C 96.554688 181.6875 95.148438 181.804688 93.761719 181.902344 C 89.03125 182.210938 82.984375 182.1875 77.945312 179.441406 C 76.988281 178.9375 76.105469 178.316406 75.269531 177.648438 C 74.816406 176.789062 74.3125 175.976562 73.789062 175.210938 C 73.761719 175.308594 73.714844 175.402344 73.691406 175.5 C 74.167969 176.238281 74.648438 176.980469 75.054688 177.816406 C 75.03125 177.792969 75.03125 177.792969 75.054688 177.816406 Z M 78.398438 186.964844 C 79.210938 187.0625 80 187.109375 80.8125 187.109375 C 84.347656 187.109375 87.882812 186.175781 91.324219 185.269531 L 92.28125 185.03125 C 93.308594 184.769531 94.527344 184.457031 95.742188 184.195312 C 98.394531 183.957031 101.238281 184.050781 103.988281 184.148438 C 112.039062 184.433594 120.351562 184.71875 126.539062 177.097656 C 127.496094 176.214844 128.402344 175.257812 129.214844 174.230469 C 130.078125 173.179688 130.886719 172.011719 131.652344 170.765625 C 132.058594 170.242188 132.347656 169.621094 132.65625 168.976562 C 133.015625 168.234375 133.375 167.445312 133.945312 166.800781 C 134.28125 166.5625 134.589844 166.300781 134.902344 166.0625 C 136.289062 164.9375 137.601562 163.886719 139.847656 165.152344 C 140.230469 165.796875 140.636719 166.539062 141.089844 167.375 C 141.472656 168.117188 141.855469 168.878906 142.214844 169.621094 C 143.765625 172.726562 145.367188 175.953125 147.660156 177.957031 C 148.570312 178.746094 149.5 179.296875 150.550781 179.679688 C 151.507812 179.824219 152.535156 179.988281 153.707031 180.203125 C 156.40625 180.46875 159.199219 180.992188 161.925781 181.496094 C 162.519531 181.613281 163.117188 181.710938 163.714844 181.828125 C 163.691406 181.734375 163.691406 181.664062 163.667969 181.566406 C 163.09375 181.472656 162.546875 181.351562 161.972656 181.257812 C 159.273438 180.753906 156.453125 180.230469 153.753906 179.964844 C 152.582031 179.75 151.53125 179.582031 150.625 179.441406 C 149.621094 179.082031 148.710938 178.53125 147.828125 177.769531 C 145.582031 175.785156 144.054688 172.726562 142.453125 169.5 C 142.09375 168.761719 141.710938 167.996094 141.304688 167.253906 C 140.851562 166.371094 140.445312 165.628906 140.039062 164.984375 C 140.039062 164.960938 140.015625 164.960938 139.992188 164.9375 C 137.601562 163.550781 136.144531 164.722656 134.734375 165.847656 C 134.425781 166.109375 134.089844 166.347656 133.78125 166.585938 L 133.753906 166.609375 C 133.160156 167.28125 132.800781 168.089844 132.441406 168.855469 C 132.132812 169.5 131.84375 170.097656 131.460938 170.625 C 130.722656 171.867188 129.886719 173.011719 129.050781 174.066406 C 128.210938 175.09375 127.328125 176.046875 126.375 176.929688 C 120.234375 184.457031 111.992188 184.171875 103.988281 183.90625 C 101.238281 183.8125 98.371094 183.71875 95.695312 183.957031 C 94.453125 184.21875 93.234375 184.527344 92.207031 184.792969 L 91.253906 185.03125 C 87.070312 186.128906 82.722656 187.277344 78.421875 186.703125 C 77.324219 186.488281 76.222656 185.007812 75.269531 183.574219 C 74.503906 181.949219 73.574219 180.394531 72.519531 178.960938 C 72.496094 179.058594 72.472656 179.152344 72.449219 179.25 C 73.453125 180.636719 74.335938 182.117188 75.078125 183.667969 C 76.058594 185.199219 77.203125 186.726562 78.398438 186.964844 Z M 76.464844 190.765625 C 77.539062 191.503906 78.613281 192.054688 79.785156 192.414062 C 80.429688 192.507812 81.171875 192.746094 81.910156 192.988281 C 82.867188 193.296875 83.847656 193.609375 84.683594 193.609375 C 85.421875 193.609375 86.019531 193.367188 86.402344 192.652344 C 87.835938 190.144531 89.652344 188.375 92.015625 187.230469 C 93.042969 186.726562 94.144531 186.367188 95.363281 186.128906 C 98.394531 185.796875 101.644531 185.890625 104.773438 185.988281 C 113.113281 186.25 121.714844 186.511719 128.140625 178.914062 C 129 178.101562 129.8125 177.21875 130.578125 176.261719 C 131.34375 175.28125 132.082031 174.183594 132.726562 173.039062 C 133.445312 171.746094 134.113281 170.335938 134.710938 168.832031 C 135.546875 168.355469 136.480469 168.042969 137.21875 167.949219 C 138.199219 167.828125 138.867188 168.117188 139.15625 168.808594 C 141.808594 174.28125 144.292969 178.460938 147.804688 181.066406 C 148.757812 181.757812 149.761719 182.332031 150.839844 182.761719 L 150.863281 182.761719 C 152.511719 183.023438 154.207031 183.285156 155.832031 183.574219 C 158.625 184.027344 161.445312 184.503906 164.289062 184.863281 C 164.289062 184.792969 164.265625 184.695312 164.265625 184.625 C 161.445312 184.265625 158.652344 183.8125 155.878906 183.335938 C 154.253906 183.070312 152.582031 182.785156 150.933594 182.523438 C 149.90625 182.117188 148.902344 181.566406 147.972656 180.875 C 144.507812 178.316406 142.023438 174.160156 139.394531 168.710938 C 139.058594 167.949219 138.296875 167.589844 137.21875 167.710938 C 136.429688 167.804688 135.453125 168.140625 134.589844 168.640625 C 134.566406 168.664062 134.542969 168.6875 134.542969 168.6875 C 133.96875 170.195312 133.300781 171.605469 132.5625 172.894531 C 131.914062 174.039062 131.199219 175.117188 130.433594 176.09375 C 129.695312 177.027344 128.882812 177.910156 128.023438 178.722656 C 121.667969 186.25 113.089844 185.988281 104.824219 185.722656 C 101.667969 185.628906 98.417969 185.53125 95.363281 185.867188 C 94.09375 186.128906 92.972656 186.488281 91.945312 186.988281 C 89.554688 188.136719 87.691406 189.953125 86.234375 192.507812 C 85.519531 193.871094 83.75 193.296875 82.03125 192.722656 C 81.289062 192.484375 80.523438 192.246094 79.878906 192.152344 C 78.734375 191.792969 77.65625 191.265625 76.605469 190.503906 C 76.582031 190.476562 76.558594 190.476562 76.558594 190.476562 C 75.316406 190.382812 74.289062 188.78125 74.289062 188.015625 C 74.289062 187.992188 74.289062 187.992188 74.289062 187.992188 C 73.644531 185.84375 72.832031 183.90625 71.851562 182.140625 C 71.828125 182.257812 71.804688 182.378906 71.78125 182.5 C 72.6875 184.171875 73.453125 186.011719 74.050781 188.042969 C 74.027344 188.925781 75.078125 190.621094 76.464844 190.765625 Z M 75.484375 194.585938 L 75.699219 194.660156 C 76.558594 195.160156 77.417969 195.496094 78.328125 195.734375 C 79.402344 196.140625 80.453125 196.449219 81.480469 196.667969 C 82.554688 196.882812 83.582031 197 84.585938 197 C 85.015625 197 85.421875 196.976562 85.851562 196.929688 C 87.335938 196.785156 88.769531 196.355469 90.082031 195.664062 C 90.964844 195.351562 91.777344 194.851562 92.589844 194.132812 C 93.332031 193.488281 93.976562 192.699219 94.597656 191.960938 C 95.863281 190 97.203125 188.207031 98.492188 188.207031 C 100.691406 188.207031 103.03125 188.398438 105.277344 188.589844 C 113.855469 189.285156 122.71875 190 128.738281 181.351562 C 129.597656 180.46875 130.433594 179.511719 131.199219 178.484375 C 132.753906 176.40625 134.089844 173.992188 135.1875 171.316406 C 135.859375 171.148438 136.550781 171.316406 137.316406 171.792969 C 139.058594 172.917969 140.445312 175.449219 140.972656 176.5 C 141.542969 177.3125 142.117188 178.054688 142.644531 178.746094 C 144.554688 181.136719 146.371094 182.953125 148.210938 184.3125 C 149.046875 184.910156 149.882812 185.4375 150.742188 185.867188 C 155.257812 187.515625 159.941406 188.136719 164.625 188.304688 C 164.625 188.230469 164.625 188.136719 164.601562 188.066406 C 159.941406 187.898438 155.304688 187.277344 150.8125 185.652344 C 149.976562 185.246094 149.140625 184.71875 148.328125 184.121094 C 146.488281 182.785156 144.699219 180.992188 142.808594 178.605469 C 142.261719 177.910156 141.710938 177.195312 141.136719 176.40625 C 140.613281 175.355469 139.203125 172.796875 137.410156 171.628906 C 136.574219 171.101562 135.785156 170.933594 135.046875 171.125 C 135.023438 171.125 134.972656 171.171875 134.972656 171.199219 C 133.898438 173.875 132.5625 176.285156 131.007812 178.363281 C 130.265625 179.367188 129.429688 180.324219 128.570312 181.207031 C 122.597656 189.761719 113.804688 189.042969 105.300781 188.351562 C 103.03125 188.160156 100.714844 187.96875 98.492188 187.96875 C 97.011719 187.96875 95.601562 189.976562 94.40625 191.839844 C 93.808594 192.582031 93.164062 193.34375 92.445312 193.992188 C 91.660156 194.683594 90.871094 195.160156 90.011719 195.472656 C 88.71875 196.164062 87.308594 196.570312 85.851562 196.714844 C 84.492188 196.855469 83.105469 196.761719 81.578125 196.449219 C 80.550781 196.234375 79.496094 195.925781 78.445312 195.519531 C 77.539062 195.304688 76.703125 194.945312 75.84375 194.46875 L 75.628906 194.394531 C 74.742188 194.085938 73.546875 193.65625 73.238281 192.582031 C 72.664062 190.238281 72.019531 188.136719 71.253906 186.273438 C 71.230469 186.441406 71.230469 186.609375 71.207031 186.800781 C 71.875 188.542969 72.496094 190.476562 73 192.652344 C 73.285156 193.824219 74.550781 194.253906 75.484375 194.585938 Z M 71.519531 194.300781 C 72.234375 195.136719 72.953125 195.566406 73.929688 195.734375 C 74.910156 196.285156 75.890625 196.761719 76.796875 197.214844 C 77.300781 197.453125 77.800781 197.71875 78.304688 197.957031 L 79.6875 198.648438 C 80.574219 199.078125 81.71875 199.652344 82.890625 200.203125 C 83.917969 200.511719 84.96875 200.65625 86.019531 200.65625 C 87.476562 200.65625 88.957031 200.371094 90.464844 199.796875 C 91.253906 199.507812 92.039062 199.101562 92.828125 198.648438 C 93.738281 198.003906 94.691406 197.167969 95.601562 196.332031 C 96.796875 195.257812 98.011719 194.15625 99.207031 193.488281 C 102.886719 192.03125 107.019531 191.71875 110.988281 191.410156 C 118.128906 190.859375 125.535156 190.285156 130.433594 182.976562 C 131.269531 182.019531 132.058594 180.945312 132.753906 179.773438 C 133.46875 178.554688 134.136719 177.21875 134.6875 175.785156 C 134.808594 175.570312 134.996094 175.449219 135.238281 175.425781 C 136.167969 175.308594 137.914062 176.429688 139.058594 177.554688 C 139.917969 178.246094 140.636719 178.914062 141.066406 179.34375 C 141.878906 180.109375 142.667969 180.921875 143.335938 181.613281 C 143.597656 181.878906 143.863281 182.164062 144.101562 182.425781 C 146.109375 184.527344 148.164062 186.703125 150.503906 188.328125 C 151.433594 188.996094 152.34375 189.5 153.273438 189.90625 C 156.882812 191.554688 160.777344 191.554688 164.671875 191.195312 C 164.671875 191.125 164.671875 191.027344 164.671875 190.957031 C 160.824219 191.289062 156.929688 191.3125 153.394531 189.691406 C 152.488281 189.285156 151.601562 188.78125 150.671875 188.136719 C 148.378906 186.511719 146.296875 184.363281 144.316406 182.257812 C 144.054688 181.996094 143.789062 181.710938 143.550781 181.445312 C 142.882812 180.753906 142.09375 179.941406 141.28125 179.152344 C 140.851562 178.722656 140.132812 178.054688 139.273438 177.363281 C 138.296875 176.40625 136.40625 175.019531 135.238281 175.1875 C 134.902344 175.234375 134.664062 175.402344 134.496094 175.6875 C 133.921875 177.121094 133.277344 178.460938 132.5625 179.65625 C 131.867188 180.800781 131.105469 181.878906 130.265625 182.832031 C 125.441406 190.046875 118.417969 190.597656 110.988281 191.171875 C 106.996094 191.480469 102.863281 191.792969 99.113281 193.273438 C 97.894531 193.964844 96.652344 195.089844 95.457031 196.164062 C 94.550781 196.976562 93.617188 197.8125 92.734375 198.457031 C 91.96875 198.910156 91.179688 199.269531 90.417969 199.582031 C 87.882812 200.558594 85.398438 200.679688 83.007812 199.988281 C 81.839844 199.4375 80.691406 198.863281 79.832031 198.433594 L 78.445312 197.742188 C 77.945312 197.503906 77.441406 197.238281 76.941406 197 C 76.035156 196.546875 75.03125 196.046875 74.050781 195.519531 C 74.027344 195.519531 74.027344 195.519531 74.027344 195.496094 C 73.09375 195.328125 72.425781 194.921875 71.734375 194.132812 C 71.46875 193.65625 71.207031 193.152344 70.96875 192.652344 C 70.96875 192.84375 70.992188 193.035156 70.992188 193.226562 C 71.160156 193.609375 71.328125 193.941406 71.519531 194.300781 Z M 153.539062 193.441406 C 152.628906 193.082031 151.746094 192.605469 150.839844 192.007812 C 148.089844 190.214844 145.652344 187.585938 143.648438 185.269531 C 142.90625 184.410156 142.1875 183.574219 141.472656 182.691406 C 141.210938 182.378906 140.945312 182.042969 140.660156 181.6875 C 140.398438 181.351562 140.109375 180.992188 139.800781 180.636719 C 139.632812 180.492188 139.464844 180.347656 139.296875 180.203125 C 138.078125 179.175781 136.71875 178.007812 135.835938 178.148438 C 135.59375 178.199219 135.378906 178.339844 135.238281 178.605469 C 134.640625 180.230469 133.945312 181.710938 133.183594 183.023438 C 132.441406 184.242188 131.605469 185.367188 130.699219 186.34375 L 130.507812 186.535156 C 127.972656 188.972656 125.585938 191.289062 122.8125 192.078125 C 119.015625 193.535156 115.097656 194.371094 111.296875 195.160156 C 105.347656 196.425781 99.710938 197.597656 94.476562 201.0625 C 93.449219 201.46875 92.398438 201.804688 91.417969 202.042969 C 88.027344 202.855469 84.875 202.734375 82.054688 201.660156 C 80.90625 201.324219 79.664062 200.941406 78.183594 200.441406 C 77.25 200.128906 76.273438 199.796875 75.078125 199.367188 C 73.667969 198.984375 72.449219 198.316406 71.375 197.503906 C 71.398438 197.621094 71.398438 197.71875 71.421875 197.835938 C 72.472656 198.601562 73.644531 199.222656 75.007812 199.582031 C 76.175781 199.988281 77.15625 200.320312 78.089844 200.65625 C 79.570312 201.15625 80.8125 201.539062 81.957031 201.875 C 83.582031 202.496094 85.304688 202.804688 87.117188 202.804688 C 88.503906 202.804688 89.960938 202.613281 91.445312 202.257812 C 92.445312 202.019531 93.5 201.683594 94.550781 201.277344 C 94.550781 201.277344 94.574219 201.277344 94.574219 201.253906 C 99.78125 197.835938 105.371094 196.640625 111.320312 195.375 C 115.121094 194.5625 119.039062 193.75 122.859375 192.292969 C 125.679688 191.480469 128.09375 189.164062 130.648438 186.703125 L 130.839844 186.511719 C 131.773438 185.53125 132.632812 184.386719 133.375 183.144531 C 134.160156 181.828125 134.855469 180.324219 135.453125 178.699219 C 135.546875 178.507812 135.691406 178.414062 135.882812 178.390625 C 136.644531 178.246094 138.03125 179.441406 139.15625 180.394531 C 139.324219 180.539062 139.511719 180.683594 139.65625 180.824219 C 139.945312 181.160156 140.230469 181.519531 140.492188 181.851562 C 140.78125 182.210938 141.042969 182.546875 141.328125 182.855469 C 142.046875 183.742188 142.761719 184.578125 143.503906 185.4375 C 145.535156 187.777344 147.972656 190.40625 150.742188 192.222656 C 151.675781 192.84375 152.582031 193.296875 153.488281 193.679688 C 156.90625 195.304688 160.800781 195.113281 164.601562 194.828125 C 164.601562 194.753906 164.601562 194.660156 164.625 194.585938 C 160.777344 194.828125 156.90625 195.042969 153.539062 193.441406 Z M 153.179688 196.449219 C 152.390625 196.019531 151.625 195.519531 150.789062 194.875 C 148.734375 193.273438 146.800781 191.148438 144.9375 189.117188 L 144.292969 188.421875 C 143.480469 187.539062 142.621094 186.609375 141.710938 185.699219 C 141.136719 185.199219 140.566406 184.578125 140.015625 183.980469 C 139.5625 183.476562 139.082031 182.976562 138.628906 182.546875 C 137.625 181.472656 136.644531 180.992188 135.859375 181.183594 C 135.355469 181.304688 134.972656 181.6875 134.808594 182.257812 C 134.351562 183.691406 133.828125 185.03125 133.230469 186.226562 C 127.664062 196.476562 117.773438 198.316406 108.191406 200.082031 C 103.914062 200.871094 99.496094 201.683594 95.527344 203.238281 C 94.359375 203.5 93.1875 203.714844 92.015625 203.859375 C 88.410156 204.3125 84.875 204.167969 81.457031 203.402344 C 80.691406 203.238281 79.925781 203.070312 79.140625 202.902344 L 77.96875 202.640625 C 76.917969 202.398438 75.867188 202.183594 74.839844 201.945312 C 73.953125 201.753906 72.953125 201.539062 71.949219 201.300781 C 71.972656 201.398438 71.996094 201.46875 71.996094 201.5625 C 72.953125 201.777344 73.90625 201.992188 74.765625 202.183594 C 75.816406 202.425781 76.871094 202.640625 77.898438 202.878906 L 79.066406 203.140625 C 79.832031 203.308594 80.621094 203.476562 81.386719 203.640625 C 83.535156 204.121094 85.734375 204.359375 87.980469 204.359375 C 89.316406 204.359375 90.679688 204.265625 92.039062 204.097656 C 93.210938 203.953125 94.382812 203.738281 95.578125 203.453125 C 99.542969 201.898438 103.9375 201.085938 108.214844 200.320312 C 117.84375 198.554688 127.804688 196.714844 133.421875 186.34375 C 134.019531 185.125 134.542969 183.789062 134.996094 182.332031 C 135.140625 181.828125 135.453125 181.519531 135.882812 181.421875 C 136.289062 181.328125 137.171875 181.375 138.4375 182.714844 C 138.890625 183.144531 139.371094 183.644531 139.824219 184.148438 C 140.398438 184.746094 140.972656 185.367188 141.519531 185.867188 C 142.429688 186.75 143.289062 187.683594 144.078125 188.566406 L 144.722656 189.257812 C 146.585938 191.3125 148.519531 193.417969 150.597656 195.042969 C 151.410156 195.6875 152.199219 196.210938 153.011719 196.640625 C 155.832031 197.980469 159.175781 197.980469 162.378906 198.003906 C 162.976562 198.003906 163.546875 198.003906 164.144531 198.027344 C 164.144531 197.957031 164.167969 197.859375 164.167969 197.789062 C 163.574219 197.789062 162.976562 197.765625 162.378906 197.765625 C 159.246094 197.765625 155.949219 197.765625 153.179688 196.449219 Z M 155.328125 200.992188 C 154.328125 200.65625 153.347656 200.179688 152.34375 199.558594 C 149.597656 197.789062 147.207031 195.019531 144.914062 192.339844 L 144.699219 192.078125 C 143.886719 191.125 143.074219 190.191406 142.238281 189.308594 C 141.808594 188.902344 141.402344 188.449219 140.972656 187.96875 C 140.851562 187.828125 140.707031 187.683594 140.589844 187.539062 C 140.0625 186.964844 139.464844 186.34375 138.890625 185.890625 C 137.769531 184.792969 136.40625 184.648438 135.140625 185.507812 C 134.066406 186.226562 133.230469 187.585938 133.039062 188.878906 C 129.765625 201.613281 118.964844 202.449219 108.527344 203.238281 C 104.152344 203.570312 100.042969 203.882812 96.460938 205.003906 C 95.21875 205.21875 94.070312 205.386719 92.949219 205.53125 C 87.859375 206.175781 83.226562 206.199219 78.757812 205.578125 C 77.5625 205.433594 76.367188 205.289062 75.171875 205.148438 C 74.527344 205.074219 73.761719 204.980469 72.925781 204.859375 C 72.953125 204.957031 72.976562 205.027344 73 205.125 C 73.789062 205.21875 74.527344 205.316406 75.148438 205.386719 C 76.34375 205.53125 77.539062 205.671875 78.734375 205.816406 C 83.199219 206.414062 87.859375 206.414062 92.972656 205.769531 C 94.09375 205.625 95.242188 205.457031 96.507812 205.242188 C 100.066406 204.121094 104.175781 203.808594 108.527344 203.476562 C 119.0625 202.6875 129.933594 201.851562 133.277344 188.925781 C 133.46875 187.707031 134.257812 186.417969 135.285156 185.722656 C 135.976562 185.269531 137.339844 184.671875 138.75 186.082031 C 139.347656 186.535156 139.894531 187.132812 140.421875 187.707031 C 140.539062 187.851562 140.683594 187.992188 140.804688 188.136719 C 141.210938 188.589844 141.640625 189.070312 142.070312 189.476562 C 142.90625 190.359375 143.695312 191.289062 144.507812 192.246094 L 144.722656 192.507812 C 147.039062 195.207031 149.40625 197.980469 152.199219 199.773438 C 153.203125 200.417969 154.207031 200.917969 155.257812 201.253906 L 155.28125 201.253906 L 155.902344 201.300781 C 158.386719 201.492188 160.921875 201.707031 163.429688 202.160156 C 163.453125 202.089844 163.476562 202.019531 163.476562 201.921875 C 160.96875 201.445312 158.410156 201.253906 155.925781 201.0625 Z M 158.410156 205.148438 C 157.335938 205.101562 156.285156 204.886719 155.28125 204.503906 C 152.628906 203.691406 150.144531 201.660156 147.492188 198.148438 C 147.109375 197.695312 146.730469 197.261719 146.347656 196.808594 C 146.132812 196.570312 145.941406 196.332031 145.726562 196.070312 C 145.199219 195.449219 144.578125 194.730469 143.933594 194.039062 C 142.90625 192.914062 142 192.03125 141.089844 191.265625 C 140.277344 190.429688 139.511719 189.832031 138.75 189.5 C 137.601562 189.234375 136.621094 189.355469 135.738281 189.855469 C 134.972656 190.285156 134.304688 191.003906 133.636719 192.03125 C 133.636719 192.03125 133.636719 192.054688 133.613281 192.054688 C 131.84375 198.769531 128.1875 202.996094 122.429688 204.910156 C 117.34375 206.605469 111.367188 206.367188 105.585938 206.128906 C 102.984375 206.007812 100.5 205.914062 98.15625 205.984375 C 97.082031 206.054688 96.03125 206.128906 94.957031 206.199219 C 88.578125 206.675781 83.65625 207.25 79.019531 208.039062 C 78.113281 208.15625 77.132812 208.253906 76.128906 208.324219 C 75.414062 208.375 74.742188 208.421875 74.167969 208.445312 C 74.195312 208.515625 74.242188 208.589844 74.265625 208.683594 C 74.839844 208.660156 75.460938 208.613281 76.152344 208.5625 C 77.15625 208.492188 78.160156 208.398438 79.066406 208.277344 C 83.703125 207.488281 88.601562 206.914062 94.980469 206.4375 C 96.03125 206.367188 97.105469 206.292969 98.15625 206.222656 C 100.5 206.152344 102.960938 206.246094 105.5625 206.367188 C 116.9375 206.84375 129.8125 207.371094 133.828125 192.152344 C 134.449219 191.171875 135.117188 190.476562 135.835938 190.070312 C 136.671875 189.59375 137.601562 189.5 138.652344 189.714844 C 139.347656 190.023438 140.085938 190.597656 140.898438 191.433594 C 141.808594 192.199219 142.714844 193.082031 143.742188 194.207031 C 144.386719 194.898438 145.007812 195.613281 145.511719 196.234375 C 145.726562 196.476562 145.917969 196.714844 146.132812 196.976562 C 146.515625 197.429688 146.894531 197.882812 147.253906 198.316406 C 149.929688 201.875 152.4375 203.90625 155.136719 204.742188 C 156.164062 205.125 157.242188 205.339844 158.363281 205.410156 C 159.296875 205.363281 160.25 205.386719 161.183594 205.480469 C 161.566406 205.578125 161.972656 205.648438 162.378906 205.722656 C 162.402344 205.648438 162.425781 205.578125 162.449219 205.480469 C 162.042969 205.410156 161.636719 205.316406 161.230469 205.242188 C 160.324219 205.125 159.34375 205.101562 158.410156 205.148438 Z M 160.085938 209.042969 C 154.949219 208.921875 151.363281 207.320312 149.09375 204.167969 C 148.425781 203.476562 147.707031 202.710938 146.945312 201.804688 C 146.226562 200.964844 145.535156 200.105469 144.863281 199.269531 C 144.195312 198.433594 143.550781 197.644531 142.90625 196.882812 C 142.09375 195.972656 141.351562 195.328125 140.660156 194.898438 C 140.398438 194.753906 139.058594 194.015625 138.152344 194.539062 L 138.128906 194.5625 C 137.578125 195.136719 137.027344 195.710938 136.480469 196.285156 C 136.097656 196.691406 135.714844 197.097656 135.332031 197.503906 C 134.734375 198.101562 134.113281 198.722656 133.46875 199.316406 C 125.320312 210.140625 112.085938 213.652344 101.3125 207.800781 C 101.285156 207.800781 101.261719 207.777344 101.261719 207.777344 C 99.996094 207.726562 98.730469 207.75 97.367188 207.824219 C 96.101562 207.871094 94.8125 207.992188 93.546875 208.132812 C 88.097656 208.730469 82.820312 210.09375 78.375 211.335938 C 77.539062 211.621094 76.679688 211.835938 75.746094 211.957031 C 75.769531 212.027344 75.816406 212.101562 75.867188 212.171875 C 76.773438 212.027344 77.632812 211.835938 78.445312 211.550781 C 82.867188 210.308594 88.121094 208.96875 93.570312 208.371094 C 94.835938 208.230469 96.125 208.132812 97.390625 208.0625 C 98.730469 207.992188 99.996094 207.992188 101.238281 208.015625 C 112.132812 213.890625 125.464844 210.355469 133.683594 199.460938 C 134.304688 198.886719 134.925781 198.265625 135.546875 197.667969 C 135.929688 197.261719 136.3125 196.855469 136.695312 196.449219 C 137.242188 195.878906 137.769531 195.304688 138.320312 194.753906 C 138.941406 194.421875 139.917969 194.730469 140.566406 195.113281 C 141.234375 195.542969 141.949219 196.164062 142.761719 197.046875 C 143.40625 197.8125 144.054688 198.601562 144.722656 199.4375 C 145.390625 200.273438 146.109375 201.132812 146.800781 201.96875 C 147.589844 202.878906 148.28125 203.667969 148.949219 204.335938 C 151.246094 207.535156 154.898438 209.160156 160.109375 209.304688 C 160.441406 209.304688 160.800781 209.304688 161.136719 209.304688 C 161.160156 209.234375 161.207031 209.136719 161.230469 209.066406 C 160.824219 209.042969 160.441406 209.042969 160.085938 209.042969 Z M 155.617188 212.078125 C 151.914062 211.097656 149.164062 208.804688 147.277344 205.027344 C 147.277344 205.027344 147.277344 205.003906 147.253906 205.003906 C 146.273438 203.953125 145.4375 203.164062 144.625 202.542969 C 142.476562 200.941406 140.445312 200.488281 138.175781 201.109375 C 137.171875 201.371094 136.191406 201.828125 135.1875 202.496094 C 134.375 203.019531 133.566406 203.714844 132.585938 204.621094 C 131.964844 205.195312 131.152344 205.960938 130.292969 206.75 C 126.445312 211.023438 121.714844 213.582031 116.601562 214.179688 C 111.535156 214.777344 106.566406 213.367188 102.21875 210.117188 C 102.195312 210.117188 102.195312 210.09375 102.195312 210.09375 C 101.070312 209.757812 100.019531 209.640625 98.96875 209.734375 C 97.917969 209.6875 96.867188 209.6875 95.863281 209.734375 C 94.8125 209.78125 93.761719 209.855469 92.757812 209.972656 C 88.3125 210.523438 84.300781 211.933594 80.550781 214.25 C 79.570312 214.703125 78.496094 214.753906 77.753906 214.753906 C 77.585938 214.753906 77.417969 214.753906 77.25 214.753906 C 77.300781 214.824219 77.347656 214.917969 77.394531 214.992188 C 77.515625 214.992188 77.632812 214.992188 77.753906 214.992188 C 78.519531 214.992188 79.640625 214.941406 80.667969 214.464844 C 84.417969 212.171875 88.386719 210.785156 92.804688 210.210938 C 93.808594 210.09375 94.835938 209.996094 95.886719 209.972656 C 96.890625 209.925781 97.917969 209.925781 98.992188 209.972656 C 100.019531 209.878906 101.046875 209.996094 102.121094 210.308594 C 106.519531 213.582031 111.535156 214.992188 116.648438 214.394531 C 121.808594 213.796875 126.589844 211.191406 130.484375 206.890625 C 131.34375 206.128906 132.15625 205.363281 132.777344 204.789062 C 133.730469 203.882812 134.542969 203.210938 135.332031 202.6875 C 136.3125 202.042969 137.269531 201.585938 138.246094 201.347656 C 140.445312 200.75 142.429688 201.183594 144.507812 202.734375 C 145.320312 203.355469 146.15625 204.121094 147.109375 205.148438 C 149.046875 208.96875 151.816406 211.3125 155.59375 212.316406 C 156.667969 212.601562 157.789062 212.769531 159.082031 212.863281 C 159.199219 212.863281 159.34375 212.863281 159.488281 212.863281 C 159.535156 212.792969 159.582031 212.699219 159.605469 212.625 C 159.4375 212.625 159.246094 212.625 159.082031 212.625 C 157.789062 212.507812 156.667969 212.339844 155.617188 212.078125 Z M 154.660156 216.257812 C 153.777344 216.113281 152.988281 215.851562 152.199219 215.46875 C 149.835938 214.105469 148.066406 212.003906 146.371094 209.949219 C 145.511719 208.898438 144.601562 207.824219 143.621094 206.867188 C 142.429688 205.9375 140.945312 205.625 139.585938 206.007812 L 139.5625 206.007812 C 138.582031 206.558594 137.699219 207.058594 136.863281 207.511719 C 135.90625 208.039062 134.996094 208.515625 134.136719 208.945312 C 132.777344 209.6875 131.367188 210.523438 130.003906 211.335938 C 120.734375 216.808594 111.128906 222.445312 102.503906 212.171875 C 101.957031 211.550781 101.023438 211.574219 100.210938 211.621094 C 99.878906 211.644531 99.542969 211.644531 99.257812 211.621094 C 98.011719 211.574219 96.84375 211.574219 95.71875 211.621094 C 94.5 211.671875 93.355469 211.765625 92.253906 211.933594 C 87.476562 212.625 83.128906 214.464844 78.996094 217.523438 C 79.042969 217.59375 79.089844 217.644531 79.140625 217.714844 C 83.25 214.679688 87.550781 212.863281 92.304688 212.171875 C 93.402344 212.003906 94.527344 211.910156 95.742188 211.859375 C 96.867188 211.8125 98.011719 211.8125 99.257812 211.859375 C 99.566406 211.886719 99.878906 211.886719 100.234375 211.859375 C 101.023438 211.835938 101.859375 211.789062 102.339844 212.339844 C 106.257812 216.996094 110.773438 218.8125 116.101562 217.859375 C 120.804688 217.023438 125.5625 214.226562 130.148438 211.527344 C 131.511719 210.714844 132.917969 209.902344 134.257812 209.160156 C 135.117188 208.730469 136.050781 208.230469 137.003906 207.726562 C 137.839844 207.273438 138.726562 206.773438 139.703125 206.222656 C 140.996094 205.863281 142.378906 206.152344 143.503906 207.035156 C 144.460938 207.992188 145.367188 209.066406 146.226562 210.09375 C 147.945312 212.148438 149.738281 214.273438 152.128906 215.660156 C 152.941406 216.066406 153.777344 216.328125 154.660156 216.472656 C 155.472656 216.589844 156.308594 216.617188 157.21875 216.542969 C 157.265625 216.542969 157.3125 216.519531 157.335938 216.519531 C 157.382812 216.425781 157.457031 216.328125 157.503906 216.257812 C 157.382812 216.28125 157.289062 216.304688 157.167969 216.328125 C 156.261719 216.402344 155.449219 216.375 154.660156 216.257812 Z M 152.199219 219.578125 C 151.460938 219.003906 150.71875 218.40625 150.027344 217.835938 C 146.585938 215.039062 143 212.148438 138.414062 212.148438 C 137.339844 212.171875 136.167969 212.292969 134.832031 212.53125 C 128.761719 214.296875 123.125 217.59375 117.675781 220.773438 C 116.746094 221.324219 115.789062 221.871094 114.855469 222.421875 C 113.496094 223.210938 111.703125 224.046875 109.960938 223.640625 C 107.570312 222.730469 106.015625 220.558594 104.535156 218.429688 C 102.695312 215.851562 100.808594 213.175781 97.390625 212.960938 C 96.414062 212.839844 95.480469 212.816406 94.574219 212.863281 C 93.59375 212.914062 92.613281 213.078125 91.660156 213.34375 C 89.316406 213.964844 87.285156 215.5625 85.328125 217.117188 C 83.847656 218.289062 82.414062 219.386719 80.90625 220.105469 C 80.953125 220.175781 81.003906 220.222656 81.050781 220.296875 C 82.578125 219.578125 83.988281 218.480469 85.46875 217.308594 C 87.40625 215.78125 89.414062 214.203125 91.707031 213.582031 C 92.636719 213.320312 93.59375 213.175781 94.574219 213.105469 C 95.480469 213.054688 96.390625 213.078125 97.367188 213.199219 C 100.664062 213.414062 102.457031 215.921875 104.34375 218.574219 C 105.875 220.699219 107.425781 222.921875 109.910156 223.855469 C 110.246094 223.925781 110.582031 223.972656 110.914062 223.972656 C 112.421875 223.972656 113.855469 223.28125 115 222.613281 C 115.933594 222.0625 116.886719 221.511719 117.820312 220.964844 C 123.265625 217.785156 128.90625 214.511719 134.925781 212.746094 C 136.242188 212.507812 137.386719 212.386719 138.4375 212.363281 C 142.929688 212.363281 146.464844 215.230469 149.882812 217.976562 C 150.597656 218.550781 151.339844 219.148438 152.082031 219.722656 C 152.796875 220.175781 153.5625 220.4375 154.421875 220.511719 C 154.492188 220.414062 154.566406 220.34375 154.636719 220.246094 C 154.613281 220.246094 154.566406 220.269531 154.542969 220.269531 C 153.679688 220.269531 152.917969 220.03125 152.199219 219.578125 Z M 144.792969 219.386719 C 141.449219 217.046875 138.007812 214.632812 133.636719 216.425781 C 132.511719 216.757812 131.390625 217.140625 130.21875 217.617188 C 126.875 219.003906 123.671875 220.867188 120.566406 222.683594 C 117.484375 224.5 114.285156 226.363281 110.9375 227.75 C 109.984375 228.109375 108.574219 228.203125 107.476562 227.367188 C 105.660156 225.933594 104.488281 223.757812 103.367188 221.65625 C 101.597656 218.359375 99.925781 215.277344 95.984375 215.015625 C 95.003906 214.824219 94 214.871094 92.925781 215.160156 C 91.96875 215.421875 91.0625 215.828125 90.175781 216.257812 C 88.648438 217.140625 87.359375 218.40625 86.089844 219.648438 C 85.015625 220.699219 83.988281 221.703125 82.867188 222.46875 C 82.914062 222.515625 82.960938 222.589844 83.035156 222.660156 C 84.15625 221.894531 85.183594 220.890625 86.257812 219.839844 C 87.5 218.597656 88.792969 217.332031 90.296875 216.472656 C 91.179688 216.066406 92.066406 215.660156 92.996094 215.398438 C 94.023438 215.109375 95.003906 215.0625 95.957031 215.253906 C 99.78125 215.492188 101.429688 218.550781 103.175781 221.777344 C 104.320312 223.902344 105.492188 226.078125 107.355469 227.558594 C 108.023438 228.058594 108.789062 228.273438 109.53125 228.273438 C 110.078125 228.273438 110.605469 228.15625 111.058594 227.988281 C 114.425781 226.601562 117.628906 224.714844 120.734375 222.898438 C 123.816406 221.082031 127.019531 219.21875 130.339844 217.835938 C 131.511719 217.355469 132.609375 216.972656 133.753906 216.640625 C 138.007812 214.894531 141.402344 217.261719 144.699219 219.554688 C 147.039062 221.203125 149.453125 222.875 152.152344 223.042969 C 152.175781 223.042969 152.222656 223.042969 152.246094 223.042969 C 152.320312 222.972656 152.390625 222.898438 152.460938 222.804688 C 152.367188 222.804688 152.273438 222.804688 152.152344 222.804688 C 149.5 222.683594 147.109375 221.011719 144.792969 219.386719 Z M 143.144531 222.398438 C 140.109375 219.292969 136.980469 216.066406 133.085938 218.597656 C 131.988281 219.027344 130.886719 219.53125 129.695312 220.175781 C 127.328125 221.441406 125.035156 222.996094 122.8125 224.5 C 118.75 227.246094 114.523438 230.113281 109.53125 231.476562 C 107.832031 231.859375 106.089844 231.929688 104.65625 229.875 C 103.652344 228.441406 102.960938 226.746094 102.289062 225.097656 C 101 221.96875 99.804688 219.027344 96.699219 217.953125 C 95.695312 217.714844 94.691406 217.738281 93.714844 217.976562 C 92.851562 218.191406 92.015625 218.574219 91.15625 219.171875 C 89.769531 220.128906 88.503906 221.441406 87.285156 222.730469 C 86.59375 223.449219 85.902344 224.1875 85.183594 224.882812 C 85.230469 224.929688 85.304688 225 85.351562 225.050781 C 86.066406 224.378906 86.785156 223.640625 87.476562 222.898438 C 88.695312 221.609375 89.9375 220.296875 91.300781 219.363281 C 92.136719 218.789062 92.949219 218.40625 93.761719 218.191406 C 94.714844 217.953125 95.671875 217.929688 96.628906 218.167969 C 99.613281 219.195312 100.808594 222.085938 102.074219 225.167969 C 102.769531 226.816406 103.460938 228.539062 104.464844 229.996094 C 105.492188 231.476562 106.710938 231.90625 107.929688 231.90625 C 108.503906 231.90625 109.074219 231.8125 109.601562 231.691406 C 114.640625 230.304688 118.871094 227.4375 122.957031 224.667969 C 125.179688 223.160156 127.472656 221.609375 129.8125 220.367188 C 131.007812 219.746094 132.105469 219.21875 133.183594 218.8125 L 133.207031 218.8125 C 136.957031 216.351562 140.015625 219.507812 142.976562 222.566406 C 144.195312 223.808594 145.4375 225.097656 146.703125 225.957031 C 147.253906 226.316406 147.804688 226.601562 148.378906 226.816406 C 148.449219 226.769531 148.519531 226.699219 148.59375 226.625 C 147.996094 226.410156 147.398438 226.125 146.824219 225.742188 C 145.582031 224.90625 144.386719 223.6875 143.144531 222.398438 Z M 131.941406 221.226562 C 131.199219 221.609375 130.484375 222.207031 129.886719 222.875 C 122.023438 229.085938 113.710938 235.011719 106.421875 233.339844 C 102.386719 232.40625 99.113281 229.277344 96.4375 223.757812 C 96.246094 223.328125 95.886719 223.042969 95.386719 222.875 C 94.023438 222.46875 91.824219 223.210938 90.464844 224.117188 C 89.53125 224.738281 88.601562 225.527344 87.742188 226.269531 L 87.429688 226.53125 C 87.359375 226.601562 87.261719 226.675781 87.167969 226.746094 C 87.238281 226.792969 87.285156 226.839844 87.359375 226.890625 C 87.429688 226.816406 87.5 226.769531 87.574219 226.699219 L 87.882812 226.433594 C 88.742188 225.695312 89.652344 224.90625 90.558594 224.285156 C 91.875 223.402344 93.976562 222.683594 95.289062 223.066406 C 95.71875 223.1875 96.03125 223.449219 96.199219 223.808594 C 98.921875 229.421875 102.242188 232.597656 106.351562 233.53125 C 107.210938 233.722656 108.097656 233.816406 109.003906 233.816406 C 115.71875 233.816406 123.027344 228.539062 130.027344 223.019531 C 130.625 222.351562 131.320312 221.777344 132.011719 221.417969 C 137.507812 219.363281 141.351562 223.6875 145.082031 227.867188 C 145.34375 228.179688 145.628906 228.464844 145.890625 228.777344 C 145.964844 228.730469 146.011719 228.679688 146.082031 228.632812 C 145.820312 228.324219 145.535156 228.011719 145.246094 227.703125 C 141.496094 223.472656 137.578125 219.101562 131.941406 221.226562 Z M 137.554688 224.523438 C 135.617188 221.871094 132.058594 222.996094 129.527344 224.070312 C 129.503906 224.070312 129.503906 224.09375 129.480469 224.09375 C 128.378906 225.214844 127.304688 226.269531 126.277344 227.222656 C 118.964844 233.984375 112.683594 237.019531 106.996094 236.492188 C 102.457031 236.0625 98.300781 233.269531 94.574219 228.226562 C 94.285156 227.84375 93.929688 227.605469 93.523438 227.558594 C 92.566406 227.4375 91.394531 228.179688 90.128906 229.136719 C 90.199219 229.183594 90.273438 229.230469 90.320312 229.277344 C 91.515625 228.371094 92.613281 227.675781 93.472656 227.796875 C 93.832031 227.84375 94.121094 228.035156 94.382812 228.371094 C 97.175781 232.167969 100.234375 234.703125 103.507812 235.921875 C 104.128906 236.109375 104.75 236.300781 105.394531 236.46875 C 105.921875 236.589844 106.449219 236.660156 106.972656 236.707031 C 107.402344 236.757812 107.855469 236.78125 108.285156 236.78125 C 113.6875 236.78125 119.636719 233.699219 126.421875 227.390625 C 127.449219 226.433594 128.523438 225.382812 129.597656 224.285156 C 134.664062 222.109375 136.429688 223.449219 137.316406 224.667969 C 139.371094 227.246094 141.59375 229.015625 144.027344 230.066406 C 144.101562 230.019531 144.171875 229.945312 144.269531 229.898438 C 141.855469 228.894531 139.632812 227.128906 137.554688 224.523438 Z M 133.183594 225.71875 C 132.464844 225.457031 131.773438 225.863281 131.105469 226.242188 C 130.722656 226.460938 130.339844 226.675781 129.980469 226.746094 C 129.957031 226.746094 129.957031 226.746094 129.957031 226.746094 C 128.976562 227.269531 127.972656 227.917969 126.921875 228.65625 C 125.296875 229.804688 123.722656 231.070312 122.191406 232.3125 C 120.089844 234.007812 117.914062 235.777344 115.574219 237.210938 C 115.121094 237.496094 114.691406 237.761719 114.234375 237.976562 C 114.378906 237.976562 114.546875 238 114.691406 238 C 115.023438 237.808594 115.359375 237.617188 115.695312 237.402344 C 118.058594 235.96875 120.234375 234.199219 122.335938 232.480469 C 123.863281 231.238281 125.417969 229.972656 127.066406 228.824219 C 128.117188 228.082031 129.097656 227.488281 130.050781 226.9375 C 130.433594 226.839844 130.839844 226.625 131.222656 226.410156 C 131.84375 226.054688 132.511719 225.671875 133.132812 225.910156 C 133.160156 225.910156 133.160156 225.910156 133.183594 225.910156 C 136.289062 225.910156 138.699219 228.058594 141.019531 230.113281 C 141.425781 230.472656 141.855469 230.855469 142.261719 231.214844 C 142.332031 231.164062 142.40625 231.117188 142.476562 231.09375 C 142.046875 230.734375 141.617188 230.328125 141.1875 229.945312 C 138.820312 227.890625 136.382812 225.71875 133.183594 225.71875 Z M 94.550781 231.191406 C 94.144531 231.140625 93.738281 231.164062 93.308594 231.238281 C 93.402344 231.308594 93.523438 231.355469 93.617188 231.429688 C 93.929688 231.40625 94.214844 231.40625 94.5 231.429688 C 95.578125 231.546875 96.507812 232.191406 97.273438 233.292969 C 97.320312 233.363281 97.34375 233.410156 97.390625 233.484375 C 97.511719 233.554688 97.65625 233.601562 97.773438 233.675781 C 97.679688 233.507812 97.558594 233.339844 97.464844 233.171875 C 96.675781 232 95.671875 231.332031 94.550781 231.191406 Z M 134.710938 228.65625 C 134.328125 228.058594 133.804688 227.703125 133.132812 227.582031 C 132.105469 227.390625 130.792969 227.773438 129.527344 228.632812 C 128.1875 229.828125 127.160156 230.710938 126.183594 231.546875 C 123.339844 233.960938 120.304688 236.351562 117.152344 238.140625 C 117.292969 238.140625 117.4375 238.140625 117.582031 238.140625 C 120.734375 236.328125 123.695312 233.960938 126.347656 231.714844 C 127.328125 230.878906 128.355469 229.996094 129.671875 228.824219 C 130.886719 227.988281 132.132812 227.628906 133.085938 227.820312 C 133.683594 227.941406 134.160156 228.273438 134.519531 228.824219 C 136.050781 230.496094 137.671875 231.835938 139.488281 232.886719 C 139.585938 232.839844 139.65625 232.789062 139.726562 232.765625 C 137.890625 231.691406 136.242188 230.328125 134.710938 228.65625 Z M 131.605469 230.496094 C 131.246094 230.519531 130.914062 230.570312 130.601562 230.519531 C 129.457031 229.945312 128.238281 230.972656 127.28125 231.785156 C 127.066406 231.976562 126.851562 232.144531 126.660156 232.3125 C 124.75 233.601562 122.910156 235.371094 121.140625 237.066406 C 120.78125 237.402344 120.425781 237.734375 120.089844 238.09375 C 120.210938 238.09375 120.328125 238.09375 120.449219 238.070312 C 120.734375 237.808594 121.019531 237.519531 121.308594 237.234375 C 123.074219 235.539062 124.914062 233.769531 126.804688 232.503906 C 127.019531 232.359375 127.210938 232.167969 127.449219 231.976562 C 128.402344 231.140625 129.503906 230.210938 130.53125 230.734375 C 130.554688 230.734375 130.554688 230.734375 130.554688 230.734375 C 130.886719 230.785156 131.269531 230.757812 131.628906 230.734375 C 132.15625 230.6875 132.703125 230.640625 133.109375 230.878906 C 134.617188 231.597656 136 232.742188 137.339844 233.890625 C 137.410156 233.867188 137.507812 233.816406 137.578125 233.769531 C 136.191406 232.574219 134.757812 231.40625 133.207031 230.664062 C 132.777344 230.402344 132.179688 230.449219 131.605469 230.496094 Z M 130.746094 233.675781 C 129.335938 233.601562 127.925781 233.960938 126.539062 234.726562 C 126.515625 234.726562 126.515625 234.75 126.515625 234.75 C 125.65625 235.824219 124.773438 236.828125 123.886719 237.761719 C 124.007812 237.734375 124.152344 237.734375 124.269531 237.710938 C 125.082031 236.851562 125.894531 235.921875 126.683594 234.917969 C 127.996094 234.175781 129.359375 233.839844 130.722656 233.914062 C 131.675781 234.296875 132.609375 234.84375 133.492188 235.464844 C 133.589844 235.441406 133.683594 235.394531 133.78125 235.371094 C 132.824219 234.703125 131.84375 234.105469 130.792969 233.699219 C 130.792969 233.675781 130.769531 233.675781 130.746094 233.675781 Z M 128.832031 236.804688 C 128.785156 236.828125 128.738281 236.851562 128.691406 236.875 C 128.785156 236.851562 128.90625 236.828125 129 236.804688 C 128.953125 236.804688 128.929688 236.804688 128.882812 236.804688 C 128.859375 236.804688 128.832031 236.804688 128.832031 236.804688 Z M 128.832031 236.804688 " fill-opacity="1" fill-rule="nonzero"/></g><g clip-path="url(#ff40cfbda7)"><g clip-path="url(#2852f3c390)"><path stroke-linecap="butt" transform="matrix(0.75, 0, 0, 0.75, 69.858794, 142.6227)" fill="none" stroke-linejoin="miter" d="M 63.209112 -0.00214198 C 28.302859 -0.00214198 0.00077425 28.299943 0.00077425 63.211404 C 0.00077425 98.122864 28.302859 126.419741 63.209112 126.419741 C 98.120572 126.419741 126.422658 98.122864 126.422658 63.211404 C 126.422658 28.299943 98.120572 -0.00214198 63.209112 -0.00214198 Z M 63.209112 -0.00214198 " stroke="#ddd2ba" stroke-width="2" stroke-opacity="1" stroke-miterlimit="4"/></g></g><g fill="#ddd2ba" fill-opacity="1"><g transform="translate(167.792967, 231.729609)"><g><path d="M 2.15625 0 L 2.15625 -0.875 L 24.5625 -38.796875 L 14.078125 -38.796875 C 11.515625 -38.796875 9.457031 -38.15625 7.90625 -36.875 C 6.363281 -35.59375 4.925781 -33.25 3.59375 -29.84375 L 2.875 -30 L 4.3125 -40 L 31.515625 -40 L 31.515625 -39.125 L 9.28125 -1.203125 L 20.953125 -1.203125 C 23.679688 -1.203125 25.988281 -2 27.875 -3.59375 C 29.769531 -5.195312 30.984375 -7.945312 31.515625 -11.84375 L 32.234375 -11.84375 L 32 0 Z M 2.15625 0 "/></g></g></g><g fill="#ddd2ba" fill-opacity="1"><g transform="translate(195.549586, 231.729609)"><g><path d="M 23.84375 0.796875 C 21.28125 0.796875 18.757812 0.398438 16.28125 -0.390625 C 13.800781 -1.191406 11.546875 -2.421875 9.515625 -4.078125 C 7.492188 -5.734375 5.878906 -7.835938 4.671875 -10.390625 C 3.472656 -12.953125 2.875 -15.96875 2.875 -19.4375 C 2.875 -23.601562 3.859375 -27.269531 5.828125 -30.4375 C 7.804688 -33.613281 10.394531 -36.09375 13.59375 -37.875 C 16.800781 -39.664062 20.21875 -40.5625 23.84375 -40.5625 C 26.34375 -40.5625 28.816406 -40.171875 31.265625 -39.390625 C 33.722656 -38.617188 35.96875 -37.40625 38 -35.75 C 40.03125 -34.101562 41.65625 -32 42.875 -29.4375 C 44.101562 -26.875 44.71875 -23.804688 44.71875 -20.234375 C 44.71875 -16.828125 44.085938 -13.816406 42.828125 -11.203125 C 41.578125 -8.585938 39.910156 -6.382812 37.828125 -4.59375 C 35.753906 -2.8125 33.488281 -1.46875 31.03125 -0.5625 C 28.582031 0.34375 26.1875 0.796875 23.84375 0.796875 Z M 9.046875 -24 C 9.046875 -21.4375 9.441406 -18.804688 10.234375 -16.109375 C 11.035156 -13.421875 12.179688 -10.929688 13.671875 -8.640625 C 15.171875 -6.347656 16.972656 -4.476562 19.078125 -3.03125 C 21.179688 -1.59375 23.566406 -0.875 26.234375 -0.875 C 29.117188 -0.875 31.46875 -1.550781 33.28125 -2.90625 C 35.09375 -4.269531 36.4375 -6.070312 37.3125 -8.3125 C 38.195312 -10.5625 38.640625 -12.960938 38.640625 -15.515625 C 38.640625 -18.078125 38.210938 -20.757812 37.359375 -23.5625 C 36.503906 -26.363281 35.289062 -28.960938 33.71875 -31.359375 C 32.144531 -33.753906 30.265625 -35.671875 28.078125 -37.109375 C 25.890625 -38.554688 23.488281 -39.203125 20.875 -39.046875 C 18.15625 -38.929688 15.914062 -38.179688 14.15625 -36.796875 C 12.394531 -35.410156 11.101562 -33.597656 10.28125 -31.359375 C 9.457031 -29.117188 9.046875 -26.664062 9.046875 -24 Z M 9.046875 -24 "/></g></g></g><g fill="#ddd2ba" fill-opacity="1"><g transform="translate(236.824892, 231.729609)"><g><path d="M 2.5625 0 L 2.5625 -1.046875 C 3.789062 -1.410156 4.628906 -2.207031 5.078125 -3.4375 C 5.535156 -4.664062 5.765625 -6.90625 5.765625 -10.15625 L 5.765625 -28.5625 C 5.765625 -30.425781 5.65625 -31.820312 5.4375 -32.75 C 5.226562 -33.6875 4.882812 -34.367188 4.40625 -34.796875 C 3.925781 -35.222656 3.3125 -35.597656 2.5625 -35.921875 L 2.5625 -36.796875 L 11.359375 -40.640625 L 12 -40.078125 L 12 -33.203125 C 14.34375 -35.066406 16.976562 -36.757812 19.90625 -38.28125 C 22.84375 -39.800781 25.859375 -40.5625 28.953125 -40.5625 C 32.898438 -40.5625 35.992188 -39.414062 38.234375 -37.125 C 40.472656 -34.832031 41.59375 -31.335938 41.59375 -26.640625 L 41.59375 -10.15625 C 41.59375 -6.90625 41.816406 -4.664062 42.265625 -3.4375 C 42.722656 -2.207031 43.566406 -1.410156 44.796875 -1.046875 L 44.796875 0 L 32.15625 0 L 32.15625 -1.046875 C 33.382812 -1.410156 34.222656 -2.207031 34.671875 -3.4375 C 35.128906 -4.664062 35.359375 -6.90625 35.359375 -10.15625 L 35.359375 -25.046875 C 35.359375 -29.203125 34.476562 -32.382812 32.71875 -34.59375 C 30.957031 -36.8125 28.316406 -37.921875 24.796875 -37.921875 C 22.609375 -37.921875 20.4375 -37.347656 18.28125 -36.203125 C 16.125 -35.054688 14.03125 -33.628906 12 -31.921875 L 12 -10.15625 C 12 -6.90625 12.238281 -4.664062 12.71875 -3.4375 C 13.195312 -2.207031 14.023438 -1.410156 15.203125 -1.046875 L 15.203125 0 Z M 2.5625 0 "/></g></g></g><g fill="#ddd2ba" fill-opacity="1"><g transform="translate(276.66033, 231.729609)"><g><path d="M 21.84375 0.796875 C 19.65625 0.796875 17.441406 0.398438 15.203125 -0.390625 C 12.960938 -1.191406 10.90625 -2.40625 9.03125 -4.03125 C 7.164062 -5.664062 5.671875 -7.707031 4.546875 -10.15625 C 3.429688 -12.613281 2.875 -15.492188 2.875 -18.796875 C 2.875 -23.171875 3.847656 -26.984375 5.796875 -30.234375 C 7.742188 -33.492188 10.316406 -36.03125 13.515625 -37.84375 C 16.710938 -39.65625 20.179688 -40.5625 23.921875 -40.5625 C 27.273438 -40.5625 30.140625 -39.90625 32.515625 -38.59375 C 34.890625 -37.289062 36.726562 -35.570312 38.03125 -33.4375 C 39.34375 -31.300781 40.023438 -28.957031 40.078125 -26.40625 L 8.796875 -26.40625 C 8.640625 -25.226562 8.5625 -24 8.5625 -22.71875 C 8.5625 -19.09375 9.265625 -15.878906 10.671875 -13.078125 C 12.085938 -10.273438 14.085938 -8.097656 16.671875 -6.546875 C 19.265625 -5.003906 22.296875 -4.234375 25.765625 -4.234375 C 28.859375 -4.234375 31.550781 -4.875 33.84375 -6.15625 C 36.132812 -7.4375 38.1875 -9.117188 40 -11.203125 L 40.71875 -10.484375 C 39.382812 -8.617188 37.785156 -6.816406 35.921875 -5.078125 C 34.054688 -3.347656 31.960938 -1.9375 29.640625 -0.84375 C 27.316406 0.25 24.71875 0.796875 21.84375 0.796875 Z M 9.046875 -27.4375 L 33.6875 -27.4375 C 33.414062 -29.25 32.757812 -31.046875 31.71875 -32.828125 C 30.675781 -34.617188 29.285156 -36.113281 27.546875 -37.3125 C 25.816406 -38.519531 23.726562 -39.125 21.28125 -39.125 C 17.863281 -39.175781 15.128906 -38.082031 13.078125 -35.84375 C 11.023438 -33.601562 9.679688 -30.800781 9.046875 -27.4375 Z M 9.046875 -27.4375 "/></g></g></g></svg>